# xmcd CD database file
#
# Track frame offsets:
#	150
#	16557
#	25350
#	40366
#	56024
#	72253
#	86991
#	110809
#	121999
#	131807
#	144777
#	171771
#	187328
#	220515
#
# Disc length: 3234 seconds
#
# Revision: 2
# Processed by: cddbd v1.5.2PL0 Copyright (c) Steve Scherf et al.
# Submitted via: CDex 1.51
#
DISCID=cc0ca00e
DTITLE=01 - The Album - CD 1
DYEAR=1900
DGENRE=
TTITLE0=02 - Other night blues
TTITLE1=03 - New day of driving
TTITLE2=B. B. boogie
TTITLE3=04 - Walkin' and cryin'
TTITLE4=05 - It's my own fault
TTITLE5=06 - Mr. pawnbroker
TTITLE6=07 - You've done lost good thing now
TTITLE7=08 - Catfish blues
TTITLE8=09 - Swing low sweet Chariot - Rock me lord
TTITLE9=10 - I'm working on the building
TTITLE10=11 - Sweet little angel
TTITLE11=12 - How blue can you get
TTITLE12=13 - Letter
TTITLE13=14 - Everyday I have a blues
EXTD=
EXTT0=
EXTT1=
EXTT2=
EXTT3=
EXTT4=
EXTT5=
EXTT6=
EXTT7=
EXTT8=
EXTT9=
EXTT10=
EXTT11=
EXTT12=
EXTT13=
PLAYORDER=
